<svg class="svg-icon" style="width: 1em; height: 1em;vertical-align: middle;fill: currentColor;overflow: hidden;" viewBox="0 0 1024 1024" version="1.1" xmlns="http://www.w3.org/2000/svg"><path d="M897.8 407.1c-15.5-42.9-37.9-82.7-66.7-118.3-0.2-0.2-0.4-0.4-0.5-0.6-3.4-3.9-7.9-11.9-0.3-21.8 13.2-15.9 18.3-22.3 18.5-22.6 8.3-10.4 6.6-25.5-3.8-33.7-10.4-8.3-25.5-6.6-33.7 3.8-0.1 0.1-5.2 6.5-18.1 22.1-0.1 0.1-0.2 0.3-0.4 0.4-20.1 25.4-19.5 58.6 1.2 82.9 25.3 31.4 45.1 66.4 58.7 104.1 14.1 39.2 21.3 80.3 21.3 122.4 0 96.4-37.5 187-105.7 255.2-68.2 68.2-158.8 105.7-255.2 105.7-96.4 0-187-37.5-255.2-105.7-68.2-68.2-105.7-158.8-105.7-255.2s37.5-187 105.7-255.2c68.2-68.2 158.8-105.7 255.2-105.7 80.7 0 144.9 20.4 171.6 54.6 10.5 13.5 14 27.8 10.3 42.6-3.2 12.9 4.6 25.9 17.5 29.1 12.9 3.2 25.9-4.6 29.1-17.5 7.3-29 0.5-58.8-19-83.8-17.6-22.5-45.4-41-80.4-53.5-36.4-13-79.8-19.6-129.1-19.6-55.2 0-108.7 10.8-159.2 32.1-48.7 20.6-92.4 50.1-130 87.6-37.5 37.5-67 81.3-87.6 130-21.3 50.4-32.1 104-32.1 159.2s10.8 108.7 32.1 159.2c20.6 48.7 50.1 92.4 87.6 130 37.5 37.5 81.3 67 130 87.6 50.4 21.3 104 32.1 159.2 32.1s108.7-10.8 159.2-32.1c48.7-20.6 92.4-50.1 130-87.6 37.5-37.5 67-81.3 87.6-130 21.3-50.4 32.1-104 32.1-159.2-0.1-47.6-8.2-94.2-24.2-138.6z" fill="#333333" /><path d="M512.6 392.3c-13.3 0-24 10.7-24 24v138.5c0 6.4 2.5 12.5 7 17l138.5 138.5c4.7 4.7 10.8 7 17 7 6.1 0 12.3-2.3 17-7 9.4-9.4 9.4-24.6 0-33.9L536.6 544.8V416.3c0-13.3-10.7-24-24-24zM416 115.2h192c13.3 0 24-10.7 24-24s-10.7-24-24-24H416c-13.3 0-24 10.7-24 24s10.8 24 24 24z" fill="#333333" /></svg>